<?xml version="1.0" encoding="UTF-8" standalone="no"?>
<svg width="10px" height="15px" viewBox="0 0 15 20" version="1.1" xmlns="http://www.w3.org/2000/svg" xmlns:xlink="http://www.w3.org/1999/xlink">
    <defs></defs>
    <g id="Menclinic" stroke="none" stroke-width="1" fill="none" fill-rule="evenodd">
        <g id="Homepage" transform="translate(-434.000000, -5798.000000)" fill-rule="nonzero" fill="#EDCEA7">
            <g id="clinic-carousel" transform="translate(0.000000, 5381.000000)">
                <g id="map-textbox" transform="translate(405.000000, 377.000000)">
                    <g id="Group-5" transform="translate(29.717868, 36.406204)">
                        <path d="M11.4155838,6.4166542 C10.1525884,5.15359587 8.47324397,4.45790251 6.68719698,4.45790251 C4.90080129,4.45790251 3.22180553,5.15359587 1.95881017,6.4166542 C-0.378533245,8.75376544 -0.669001255,13.1511055 1.3297534,15.8153146 L6.68719698,23.5526802 L12.0366204,15.8261249 C14.0433952,13.1511055 13.7529272,8.75376544 11.4155838,6.4166542 Z M6.74891707,13.5245829 C5.40327956,13.5245829 4.30800943,12.4292582 4.30800943,11.0835536 C4.30800943,9.73784899 5.40327956,8.64252425 6.74891707,8.64252425 C8.09455459,8.64252425 9.18982472,9.73784899 9.18982472,11.0835536 C9.18982472,12.4292582 8.09455459,13.5245829 6.74891707,13.5245829 Z" id="pin-icon"></path>
                    </g>
                </g>
            </g>
        </g>
    </g>
</svg>
