<?xml version="1.0" encoding="UTF-8" standalone="no"?>
<svg width="135px" height="136px" viewBox="0 0 135 136" version="1.1" xmlns="http://www.w3.org/2000/svg" xmlns:xlink="http://www.w3.org/1999/xlink">
    <defs>
        <polygon id="path-1" points="4.26306397e-05 2.43885335e-14 134.286517 2.43885335e-14 134.286517 135.149957 4.26306397e-05 135.149957 4.26306397e-05 0"></polygon>
    </defs>
    <g id="Menclinic" stroke="none" stroke-width="1" fill="none" fill-rule="evenodd" opacity="0.747959422">
        <g id="Homepage" transform="translate(-893.000000, -8483.000000)">
            <g id="footer" transform="translate(0.000000, 8276.000000)">
                <g id="certifications" transform="translate(240.000000, 207.000000)">
                    <g id="rohs" opacity="0.8" transform="translate(653.468165, 0.000000)">
                        <g id="Group-3">
                            <mask id="mask-2" fill="white">
                                <use xlink:href="#path-1"></use>
                            </mask>
                            <g id="Clip-2"></g>
                            <path d="M98.3152515,16.7969569 L98.321433,16.7956697 C98.3463719,16.7703559 98.3804764,16.7489035 98.3936919,16.7182266 C98.4041364,16.6944145 98.3985944,16.64014 98.3832474,16.631988 C96.3506185,15.5703097 94.3527335,14.4324754 92.2759819,13.4660457 C82.1727333,8.76475638 71.5892505,7.08846733 60.5127444,8.3054609 C54.7326691,8.94045138 49.1955884,10.4333226 43.8876473,12.7282983 C35.5616701,16.3277933 28.4180537,21.5986433 22.4585034,28.5009469 C18.9269811,32.5910578 15.9622333,37.0473609 13.6623102,41.93121 C8.80305669,52.2504488 7.01832494,63.091624 8.25631873,74.4633166 C8.88959689,80.2812023 10.3239048,85.8749107 12.6483404,91.2060419 C18.0208669,103.528289 26.4487313,113.142389 38.1276084,119.79992 C46.1764864,124.388156 54.8322116,126.926616 64.0536454,127.41337 C68.5552279,127.650634 73.0463658,127.374971 77.5114991,126.616629 C85.8368368,125.202488 93.4783791,122.019169 100.475133,117.378805 C105.682252,113.925829 110.162306,109.578719 114.009722,104.608417 C121.621636,94.77486 125.880437,83.6337804 126.58704,71.1971916 C126.970076,64.4532066 126.438045,57.7444035 124.408827,51.2535566 C123.520191,48.4113307 122.521355,45.5834778 121.310219,42.8678209 C117.928117,35.2829026 113.120447,28.6867245 106.902981,23.2230176 C104.224498,20.8688333 101.18877,18.9263202 98.3152515,16.7969569 M134.286559,64.5716238 L134.286559,70.1492428 C134.205774,70.8908516 134.100264,71.6307442 134.048254,72.3744983 C133.270245,83.52137 129.950171,93.8442557 124.069913,103.315696 C118.027446,113.047998 110.021412,120.745756 100.09977,126.399745 C92.5769542,130.686789 84.5210421,133.406951 75.9356575,134.497376 C74.0029974,134.743005 72.0637296,134.933932 70.1274459,135.149957 L64.1591562,135.149957 C63.6006949,135.070583 63.0445781,134.95474 62.4833458,134.917413 C54.8292275,134.411566 47.4831155,132.60785 40.4605702,129.523641 C29.5177111,124.717879 20.4531581,117.481562 13.3355464,107.844509 C6.33516893,98.366203 2.06954706,87.743413 0.658899176,75.9978054 C0.365813524,73.556739 0.215966824,71.0980816 4.26306397e-05,68.6475761 L4.26306397e-05,66.2878142 C0.0665464295,65.7251183 0.172057264,65.163924 0.193798891,64.5995119 C0.377323797,59.8353671 1.06133242,55.1430878 2.27907666,50.5398359 C5.79951493,37.2331385 12.6553745,25.9742854 22.9506741,16.8967104 C33.9135696,7.2304821 46.6872015,1.73995971 61.2103949,0.402618286 C62.8314249,0.253309714 64.4550129,0.133390905 66.0775351,-4.29047614e-05 L68.2090671,-4.29047614e-05 C68.7694468,0.0649578095 69.3285477,0.16857281 69.8904195,0.189381619 C79.2821627,0.540128048 88.2066741,2.796704 96.629636,6.96811948 C108.088965,12.6435614 117.235582,20.9475635 124.031759,31.8312145 C129.204348,40.1141933 132.421256,49.1233352 133.642837,58.8391185 C133.882634,60.7466642 134.073193,62.6606457 134.286559,64.5716238" id="Fill-1" fill="#FFFFFF" mask="url(#mask-2)"></path>
                        </g>
                        <path d="M98.3152515,16.7969569 C98.3802633,17.3538607 98.5239285,17.9148404 98.4962186,18.4670247 C98.3719503,20.9286854 98.1012457,23.3860557 98.059894,25.8481454 C97.8998159,35.4000326 99.6414907,44.6046057 103.217988,53.4560726 C103.336288,53.7488976 103.444996,54.045584 103.579283,54.3948288 C87.4727876,67.9211985 74.3161194,83.8965721 64.0312643,102.447519 C51.5502918,90.1836214 37.2798981,80.8445419 21.0039459,74.2921266 C27.458438,68.7108607 33.7997458,63.2274176 40.1568268,57.730245 C48.9250969,63.6830661 56.0953575,71.1096659 61.9351157,80.1936766 C62.2309724,79.2081542 62.4686382,78.4504561 62.6860545,77.6871804 C67.3929035,61.1671309 74.8914199,46.0466347 85.1242657,32.2917971 C88.9836175,27.1046114 93.2053298,22.2366371 97.7214067,17.6218009 C97.9571542,17.3808907 98.1261846,17.073478 98.3239908,16.7963133 C98.321433,16.7956697 98.3152515,16.7969569 98.3152515,16.7969569" id="Fill-4" fill="#FFFFFF"></path>
                        <path d="M38.437725,103.940132 C38.437725,104.402431 38.4812082,104.869878 38.4289857,105.326171 C38.3119646,106.348591 38.7904935,106.678529 39.7277281,106.570194 C40.4980638,106.481167 41.281615,106.471084 42.0402272,106.325637 C43.1688734,106.109183 43.8761157,105.226203 43.943259,104.090084 C44.0347017,102.542295 43.2257853,101.735471 41.3647447,101.518158 C38.4509405,101.177709 38.4379381,101.188435 38.437725,103.940132 M45.1164542,108.675102 C46.9971049,111.138479 48.8234015,113.530419 50.8948244,116.243931 C49.6312522,116.243931 48.6541579,116.127659 47.7158575,116.269674 C46.0839566,116.51702 45.074463,115.83655 44.2220634,114.502856 C43.2686291,113.011057 42.1500011,111.625877 41.0955322,110.200152 C40.6965094,109.660624 39.3363789,109.308376 38.7941171,109.68272 C38.571372,109.836105 38.444759,110.269443 38.4383644,110.578572 C38.4072441,112.115206 38.4070309,113.653341 38.4453985,115.189761 C38.4647954,115.969555 38.1857779,116.299922 37.3896507,116.253799 C36.5395957,116.204673 35.6848514,116.231059 34.8324517,116.241786 C34.1878764,116.249723 33.9817573,115.933515 33.9853809,115.308393 C34.0158618,109.982195 34.0401613,104.655784 34.0243879,99.3295866 C34.0222564,98.6002056 34.2729246,98.3895432 34.9432914,98.4002694 C37.9265836,98.4474647 40.9107284,98.4429597 43.893168,98.5107492 C45.715841,98.5523668 47.8509966,99.9478442 48.2794346,101.423983 C48.8892659,103.524171 48.6660945,105.886078 46.8208272,107.383454 C46.3035044,107.803063 45.7599637,108.18942 45.1164542,108.675102" id="Fill-6" fill="#FFFFFF"></path>
                        <path d="M70.0684877,107.369789 C70.0687009,104.761608 70.1025922,102.152784 70.0503697,99.5454619 C70.0320385,98.6324485 70.3634917,98.3355476 71.2224991,98.3969014 C71.929102,98.447529 72.6444441,98.4453838 73.351047,98.397545 C74.1601766,98.3424124 74.486301,98.5680914 74.4257654,99.4768143 C74.3289939,100.935362 74.4187314,102.405279 74.3846269,103.869618 C74.3660825,104.667003 74.6118482,105.044351 75.4795949,105.016677 C77.1110695,104.964977 78.7457414,104.978277 80.3780686,105.010456 C81.1718511,105.026116 81.4233719,104.726855 81.3847912,103.924107 C81.3146638,102.462557 81.3882016,100.994356 81.3391764,99.5313033 C81.3116796,98.7150402 81.5706608,98.4029081 82.4234867,98.3896076 C85.8115568,98.3361912 85.8113437,98.3106628 85.8113437,101.681475 C85.8113437,106.147647 85.7902415,110.614032 85.8292486,115.079775 C85.8371352,115.963827 85.5826303,116.324871 84.6884526,116.253863 C83.9827024,116.197873 83.2609656,116.17406 82.5609705,116.259012 C81.5158804,116.385581 81.3069902,115.905477 81.334487,114.972298 C81.3899068,113.080413 81.3270266,111.185095 81.3630495,109.292351 C81.3766913,108.573696 81.1857061,108.266284 80.4102547,108.289667 C78.7429704,108.340295 77.0722756,108.343298 75.4054176,108.289023 C74.5694307,108.261779 74.3761007,108.634621 74.3854795,109.374085 C74.4102053,111.338908 74.3662957,113.304805 74.407008,115.268985 C74.422355,116.01231 74.1885259,116.304705 73.4363083,116.254721 C72.6585123,116.202807 71.8724032,116.202163 71.0946072,116.25322 C70.2940038,116.305564 70.0454672,115.97584 70.0554854,115.19433 C70.0893767,112.586364 70.0682745,109.977969 70.0684877,107.369789" id="Fill-8" fill="#FFFFFF"></path>
                        <path d="M103.872006,103.319408 C103.115952,102.910525 102.599908,102.623492 102.077256,102.34976 C100.16378,101.348792 98.1618452,100.91052 96.021787,101.425806 C95.7165516,101.499388 95.3290391,101.553877 95.1506299,101.763895 C94.7852853,102.19423 94.3022802,102.728395 94.3105931,103.212146 C94.3178403,103.629395 94.8615942,104.204962 95.3053791,104.410476 C96.0959643,104.776453 96.98865,104.921042 97.8410496,105.148652 C98.8324251,105.413804 99.8414924,105.622321 100.816668,105.937456 C102.788335,106.574592 104.331351,107.672096 104.583725,109.946692 C104.848887,112.337989 103.881172,114.18461 101.815291,115.28147 C100.687711,115.879991 99.3751132,116.280722 98.1074911,116.423809 C95.7429826,116.690677 93.3680297,116.579553 91.0676803,115.785601 C90.093357,115.449442 89.3373026,115.095692 89.5466191,113.803186 C89.6811187,112.973623 89.5717712,112.103943 89.5717712,111.035829 C90.0775837,111.278455 90.4497492,111.421328 90.7863181,111.624268 C93.0058824,112.962253 95.3520597,113.739473 97.9746967,113.280606 C98.3517647,113.214533 98.7324563,113.088822 99.0745672,112.916774 C100.305314,112.297873 100.426811,110.817873 99.1834885,110.257322 C97.9437894,109.698273 96.553178,109.474954 95.2239546,109.123349 C93.6084665,108.695803 91.9727288,108.306657 90.8287356,106.937137 C88.5838061,104.249797 89.6534088,100.392016 93.0433973,98.939046 C95.9904535,97.6757153 99.0008162,97.889381 102.009474,98.6354948 C103.882664,99.0999388 103.871793,99.1441307 103.872006,101.122684 L103.872006,103.319408 Z" id="Fill-10" fill="#FFFFFF"></path>
                        <path d="M62.311928,109.678022 C62.2611975,109.657213 62.210467,109.636619 62.1597366,109.616025 C62.0945117,108.943063 62.1028247,108.252511 61.9497807,107.600573 C61.5906175,106.072306 60.5664164,105.260977 59.1830521,105.303238 C57.7756015,105.346572 56.6767968,106.193512 56.5267369,107.724354 C56.390532,109.113181 56.4845326,110.554352 56.6925701,111.939532 C56.8750293,113.155024 57.9335481,113.669238 59.032566,113.77843 C60.0565539,113.880114 61.0641291,113.54889 61.4996011,112.490429 C61.8683562,111.593934 62.0484706,110.618494 62.311928,109.678022 M58.8793088,102.455864 C62.9859184,102.542746 65.2530158,104.042911 66.1231072,106.822496 C67.1907916,110.232995 66.2776433,113.613247 63.7134103,115.474455 C62.0286474,116.697241 60.0684905,116.71569 58.0987418,116.570243 C55.4149298,116.372023 53.396369,115.087025 52.504536,112.5284 C51.4752192,109.575051 51.6574652,106.684986 53.9578145,104.275454 C55.4816468,102.679183 57.4697267,102.405665 58.8793088,102.455864" id="Fill-12" fill="#FFFFFF"></path>
                    </g>
                </g>
            </g>
        </g>
    </g>
</svg>