<?xml version="1.0" encoding="UTF-8" standalone="no"?>
<svg width="22px" height="23px" viewBox="0 0 22 23" version="1.1" xmlns="http://www.w3.org/2000/svg" xmlns:xlink="http://www.w3.org/1999/xlink">
    <defs></defs>
    <g id="Menclinic" stroke="none" stroke-width="1" fill="none" fill-rule="evenodd">
        <g id="Homepage" transform="translate(-1260.000000, -8849.000000)" fill-rule="nonzero" fill="#FFFFFF">
            <g id="footer" transform="translate(0.000000, 8276.000000)">
                <g id="social" transform="translate(1260.000000, 467.000000)">
                    <g id="003-twitter" transform="translate(0.000000, 106.000000)">
                        <g id="Layer_1">
                            <g id="Group">
                                <path d="M3.70566044,15.5057574 C4.95246259,16.3385848 6.43337529,16.8243403 8.02449869,16.8243403 C13.2067994,16.8243403 16.0406269,12.3526382 16.0406269,8.47445056 C16.0406269,8.34734674 16.0378804,8.22074244 16.0325181,8.09481929 C16.583092,7.68108479 17.0607299,7.16422318 17.4384457,6.57570391 C16.933168,6.80911356 16.3901797,6.96696024 15.8202491,7.03789135 C16.4019942,6.67460784 16.8487225,6.09962087 17.0590296,5.41428654 C16.5146027,5.75050542 15.9116264,5.99485899 15.2699368,6.12636762 C14.7560271,5.55601252 14.0237886,5.19972222 13.2133824,5.19972222 C11.6575282,5.19972222 10.395947,6.51367325 10.395947,8.13428096 C10.395947,8.36428483 10.4209711,8.58824911 10.4690575,8.80313131 C8.12751605,8.68061395 6.05147428,7.51238501 4.66193881,5.73674606 C4.41937064,6.17027951 4.28043017,6.67433538 4.28043017,7.21222202 C4.28043017,8.23027863 4.7776862,9.12858792 5.53372813,9.65484949 C5.07182845,9.63959158 4.63739426,9.50749261 4.25762946,9.2877515 C4.25736788,9.30005773 4.25736788,9.31231855 4.25736788,9.3247156 C4.25736788,10.7465618 5.22859969,11.9325917 6.51742839,12.2022842 C6.28100725,12.2692192 6.03207406,12.3052751 5.77511921,12.3052751 C5.59358544,12.3052751 5.41706522,12.2868385 5.24494819,12.2524628 C5.60352533,13.4184212 6.64407478,14.2669152 7.87696981,14.2904832 C6.91266977,15.0777186 5.69786709,15.5468992 4.37786724,15.5468992 C4.15029609,15.5469447 3.92608184,15.5330491 3.70566044,15.5057574 Z" id="Shape"></path>
                                <path d="M0,0 L0,22.0240625 L21.1440625,22.0240625 L21.1440625,0 L0,0 Z M19.8361823,20.6617494 L1.30788015,20.6617494 L1.30788015,1.36231314 L19.8361823,1.36231314 L19.8361823,20.6617494 Z" id="Shape"></path>
                            </g>
                        </g>
                    </g>
                </g>
            </g>
        </g>
    </g>
</svg>