<?xml version="1.0" encoding="UTF-8" standalone="no"?>
<svg width="135px" height="135px" viewBox="0 0 135 135" version="1.1" xmlns="http://www.w3.org/2000/svg" xmlns:xlink="http://www.w3.org/1999/xlink">
    <defs>
        <polygon id="path-1" points="0 0.159498815 0 134.821549 134.127831 134.821549 134.127831 0.159498815"></polygon>
    </defs>
    <g id="Menclinic" stroke="none" stroke-width="1" fill="none" fill-rule="evenodd" opacity="0.747959422">
        <g id="Homepage" transform="translate(-703.000000, -8483.000000)">
            <g id="footer" transform="translate(0.000000, 8276.000000)">
                <g id="certifications" transform="translate(240.000000, 207.000000)">
                    <g id="ecm" opacity="0.799673507" transform="translate(463.295304, 0.000000)">
                        <g id="Group-11" opacity="0.541277985" transform="translate(37.768083, 28.429911)" fill="#FFFFFF">
                            <polygon id="Fill-1" points="30.3156907 42.4416415 32.7136643 33.8648184 39.1582181 49.5137587 33.1632843 49.5137587"></polygon>
                            <path d="M21.4731634,11.444702 C23.5423148,11.444702 25.219997,9.76063529 25.219997,7.68293752 C25.219997,5.60523976 23.5423148,3.92117303 21.4731634,3.92117303 C19.404012,3.92117303 17.7263298,5.60523976 17.7263298,7.68293752 C17.7263298,9.76063529 19.404012,11.444702 21.4731634,11.444702" id="Fill-3"></path>
                            <path d="M39.1582181,7.68293752 C41.2273695,7.68293752 42.9050517,5.99887079 42.9050517,3.92117303 C42.9050517,1.84347526 41.2273695,0.159408532 39.1582181,0.159408532 C37.0890667,0.159408532 35.4113845,1.84347526 35.4113845,3.92117303 C35.4113845,5.99887079 37.0890667,7.68293752 39.1582181,7.68293752" id="Fill-5"></path>
                            <path d="M25.273262,50.8678434 L38.4087614,13.7016102 L52.2909299,50.8678434 L25.273262,50.8678434 Z M58.4363365,50.8678434 L42.4553417,7.68278705 C42.4553417,7.68278705 39.6077482,10.2407869 35.4112945,7.68278705 C24.0110287,40.9906537 21.2830341,48.9601774 20.6301858,50.8678434 L17.7262399,50.8678434 C17.7262399,50.8678434 21.9226935,70.8804306 40.2072416,70.8804306 C58.4917896,70.8804306 60.5900165,50.8678434 60.5900165,50.8678434 L58.4363365,50.8678434 Z" id="Fill-7"></path>
                            <path d="M18.1558968,55.5324314 L8.84606435,55.5324314 L21.4731934,19.2690217 L25.9693937,31.3066681 L28.8169873,23.7831391 L25.220027,11.4445515 C23.4215469,13.7016102 18.4757265,12.1969044 18.4757265,12.1969044 L3.1550737,55.5324314 L0.0413050938,55.5324314 C0.0413050938,55.5324314 4.23775875,75.5450185 22.5223068,75.5450185 C27.9324348,75.5450185 31.924761,73.7929391 34.8658755,71.3255225 C24.8438449,69.2541445 20.1096457,60.608406 18.1558968,55.5324314" id="Fill-9"></path>
                        </g>
                        <polygon id="Fill-12" fill="#FFFFFF" points="47.5921008 66.8198616 38.4962875 66.8198616 38.4962875 72.7116876 48.6559018 72.7116876 48.6559018 77.3145826 32.9215985 77.3145826 32.9215985 52.4956643 48.1424357 52.4956643 48.1424357 57.0985593 38.4962875 57.0985593 38.4962875 62.2539823 47.5921008 62.2539823"></polygon>
                        <g id="Group-44" transform="translate(0.000000, 0.141442)">
                            <path d="M70.5883071,76.4733919 C69.597944,76.9521893 67.2506277,77.5414321 64.2798383,77.5414321 C55.7340601,77.5414321 51.3331792,72.1654192 51.3331792,65.0951076 C51.3331792,56.6627363 57.3478963,51.9861107 64.8298734,51.9861107 C67.7275247,51.9861107 69.9282649,52.5753535 70.9186279,53.0541509 L69.7448199,57.5095847 C68.6447495,57.0310883 67.0674825,56.5890057 65.0498875,56.5890057 C60.6490066,56.5890057 57.2013202,59.2770122 57.2013202,64.8004862 C57.2013202,69.7347175 60.1352408,72.8648065 65.0867563,72.8648065 C66.8102998,72.8648065 68.6447495,72.5334703 69.7816887,72.0546729 L70.5883071,76.4733919 Z" id="Fill-13" fill="#FFFFFF"></path>
                            <path d="M95.1976602,67.6726386 C95.0876531,64.6900107 94.9776461,61.118441 94.9776461,57.4725389 L94.9042081,57.4725389 C94.0972901,60.6396437 93.0703579,64.1744985 92.1168637,67.0836967 L89.1092054,76.7682842 L84.7445939,76.7682842 L82.1038255,67.1571263 C81.2969074,64.2482291 80.4902891,60.7500891 79.866816,57.4725389 L79.7930783,57.4725389 C79.6830713,60.8235187 79.5364951,64.6532959 79.389919,67.7463691 L78.913022,77.17305 L73.7414924,77.17305 L75.3187595,52.3544326 L82.7641675,52.3544326 L85.1849217,60.6396437 C85.9915401,63.5118261 86.7250202,66.6048993 87.2753552,69.5137966 L87.422231,69.5137966 C88.0822732,66.6416141 88.9257604,63.3646659 89.7695474,60.6029288 L92.3734468,52.3544326 L99.7088478,52.3544326 L101.029232,77.17305 L95.6011192,77.17305 L95.1976602,67.6726386 Z" id="Fill-15" fill="#FFFFFF"></path>
                            <path d="M67.0639455,24.8365836 C43.6378424,24.8365836 24.5793484,43.9710244 24.5793484,67.4904789 C24.5793484,91.0099333 43.6378424,110.144374 67.0639455,110.144374 C90.4900485,110.144374 109.548542,91.0099333 109.548542,67.4904789 C109.548542,43.9710244 90.4900485,24.8365836 67.0639455,24.8365836 M67.0639455,111.348139 C42.976901,111.348139 23.3803617,91.6735086 23.3803617,67.4904789 C23.3803617,43.3071482 42.976901,23.632819 67.0639455,23.632819 C91.1509899,23.632819 110.747529,43.3071482 110.747529,67.4904789 C110.747529,91.6735086 91.1509899,111.348139 67.0639455,111.348139" id="Fill-17" fill="#FFFFFF"></path>
                            <path d="M41.2535074,119.393951 C40.6147472,119.024094 39.7607689,119.127919 39.1744644,119.728899 C39.0749485,119.827908 38.9799288,119.943771 38.8942012,120.093639 L38.3603523,121.023548 C38.2923099,121.141216 38.2356577,121.264902 38.1957914,121.384075 C38.0018553,122.140942 38.2983048,122.91075 38.9688381,123.298964 C39.9592012,123.871956 40.9945263,123.402788 41.6755507,122.216177 C42.2774421,121.168601 42.2543616,119.973263 41.2535074,119.393951" id="Fill-19" fill="#FFFFFF"></path>
                            <path d="M47.255755,122.17561 C46.2246264,121.774155 45.425202,122.547875 45.0741986,123.218673 L48.00722,124.360142 C48.2671003,123.720341 48.3786061,122.612577 47.255755,122.17561" id="Fill-21" fill="#FFFFFF"></path>
                            <path d="M26.3651193,105.256488 C25.7593312,104.327482 24.6601601,104.489389 23.9860298,104.829753 L25.7092736,107.472318 C26.2919811,107.104267 27.0248618,106.268252 26.3651193,105.256488" id="Fill-23" fill="#FFFFFF"></path>
                            <path d="M61.854378,125.11713 C60.5888474,125.084628 60.0058401,126.254085 59.9767647,127.389235 C59.9431931,128.696524 60.6550915,129.701968 61.6994089,129.729053 L61.7116985,129.729354 C62.7437264,129.756138 63.5425513,128.801552 63.5773219,127.44491 C63.6033999,126.433446 63.1321981,125.149932 61.854378,125.11713" id="Fill-25" fill="#FFFFFF"></path>
                            <path d="M82.3281859,121.515526 C81.6348718,121.767414 81.1513804,122.493886 81.2353095,123.34254 C81.2580902,123.478565 81.2775738,123.641976 81.323435,123.769876 L81.6747381,124.744324 C81.7247958,124.88366 81.7907401,125.030519 81.8716717,125.145779 C82.29971,125.790395 83.0994341,126.05101 83.8161285,125.790997 C84.8910201,125.400676 85.1973612,124.29231 84.7333534,123.003981 C84.3277961,121.878461 83.4030775,121.125205 82.3281859,121.515526" id="Fill-27" fill="#FFFFFF"></path>
                            <path d="M107.037385,28.3776379 C107.261895,27.9888219 107.56344,27.5088207 107.78795,27.1353528 L107.76517,27.1121803 C107.389287,27.3466135 106.913889,27.6487584 106.538007,27.8678435 L105.127998,28.6373501 L106.255046,29.7881491 L107.037385,28.3776379 Z" id="Fill-29" fill="#FFFFFF"></path>
                            <path d="M76.5033284,15.7689556 L76.5138195,15.7707613 C77.6072955,15.9702853 78.420808,15.05091 78.6755927,13.6440101 C78.9090953,12.3544772 78.504737,11.1356655 77.3899791,10.9322293 C76.2755209,10.7284922 75.4521168,11.7014349 75.2093219,13.0442344 C74.9638294,14.3978677 75.4206434,15.5712373 76.5033284,15.7689556" id="Fill-31" fill="#FFFFFF"></path>
                            <path d="M29.9591421,25.0032147 C29.5158167,24.5150882 28.9480965,24.5653453 28.3902679,25.0766444 C28.0950174,25.3468895 27.9421466,25.5160185 27.8765021,25.6204451 L29.2217652,27.1010756 L29.7001609,26.6632062 C30.305949,26.1082707 30.3883793,25.4753914 29.9591421,25.0032147" id="Fill-33" fill="#FFFFFF"></path>
                            <path d="M90.561568,121.496717 L90.1182427,120.56079 C89.0421521,121.047111 87.9216989,121.81421 88.4180795,122.861786 C88.7241208,123.508208 89.2831484,123.596685 89.7714358,123.363455 C90.4818354,123.024295 90.726129,122.361321 90.6649806,121.829859 C90.6508925,121.713997 90.6092278,121.597232 90.561568,121.496717" id="Fill-35" fill="#FFFFFF"></path>
                            <path d="M59.4335638,11.9701754 C59.2555142,11.557886 59.0504875,11.0288314 58.8847276,10.6258712 L58.8526547,10.6303853 C58.8166851,11.0730698 58.776519,11.6367326 58.7282598,12.0703888 L58.5058477,13.6662797 L60.0981022,13.4405739 L59.4335638,11.9701754 Z" id="Fill-37" fill="#FFFFFF"></path>
                            <g id="ecm-logo">
                                <mask id="mask-2" fill="white">
                                    <use xlink:href="#path-1"></use>
                                </mask>
                                <g id="Clip-40"></g>
                                <path d="M123.975411,62.7605867 L122.468884,62.8704302 L122.66282,65.5503112 L121.328348,65.6475152 L121.134112,62.9676342 L119.412367,63.0934276 L119.629084,66.0865884 L118.28382,66.1846952 L117.948404,61.5492985 L125.201974,61.0202439 L125.5266,65.5039663 L124.181337,65.6020731 L123.975411,62.7605867 Z M119.802337,89.3881614 C117.981376,89.3881614 116.505124,87.9063271 116.505124,86.0778086 C116.505124,84.249892 117.981376,82.7674559 119.802337,82.7674559 C121.623298,82.7674559 123.099551,84.249892 123.099551,86.0778086 C123.099551,87.9063271 121.623298,89.3881614 119.802337,89.3881614 L119.802337,89.3881614 Z M115.7048,51.4488104 L122.65023,49.2823349 L123.136719,50.8547525 L116.191289,53.0215289 L115.7048,51.4488104 Z M114.690457,48.5970919 L117.4796,47.4020546 L116.416399,44.9009326 L113.627855,46.09597 L112.983699,44.5813331 L119.673146,41.7154704 L120.317002,43.2301073 L117.736783,44.3354642 L118.799385,46.8365861 L121.380204,45.7309283 L122.02376,47.2455652 L115.334613,50.1117288 L114.690457,48.5970919 Z M112.787965,106.934837 L109.61095,104.344636 C109.067209,103.901049 108.591811,103.529386 108.139193,103.207981 L108.735689,102.470375 L109.672997,103.171267 L109.696378,103.142677 C109.246458,102.426136 109.273735,101.589821 109.731148,101.024653 C109.800689,100.938584 109.864535,100.879299 109.936175,100.810684 L110.728106,101.456203 C110.648673,101.534448 110.56924,101.612993 110.476618,101.727652 C109.996124,102.32171 110.103733,103.108671 110.630688,103.729512 C110.739496,103.849588 110.86509,103.968159 110.998777,104.077099 L113.469589,106.0916 L112.787965,106.934837 Z M109.955958,110.206067 C108.671244,111.49891 107.028932,111.421869 105.767598,110.158217 C104.497571,108.885838 104.252078,107.123527 105.476244,105.892076 C106.847585,104.511959 108.412862,105.365429 109.187108,106.141255 C109.343875,106.298045 109.448187,106.420227 109.518028,106.524955 L106.574816,109.485614 C107.618833,110.496475 108.696123,110.268663 109.460177,109.500059 C110.006915,108.949638 110.25001,108.513273 110.405878,108.111818 L111.092598,108.521098 C110.945422,108.913826 110.624693,109.533765 109.955958,110.206067 L109.955958,110.206067 Z M105.420491,114.237174 L103.285695,111.544352 C102.6886,110.791398 101.904762,110.377002 101.106836,111.014696 C100.558899,111.452565 100.4399,112.194084 100.661113,112.789948 C100.706675,112.926575 100.810087,113.096607 100.917097,113.231729 L103.151409,116.050043 L102.305523,116.726258 L99.6042063,113.319002 C99.2142358,112.826663 98.8983028,112.448079 98.5634858,112.085144 L99.313452,111.48597 L99.9657008,112.210034 L99.9851843,112.194987 C99.8715803,111.575951 100.065516,110.711347 100.834666,110.096825 C101.478822,109.582216 102.784818,109.169325 104.055145,110.771535 L106.266376,113.56126 L105.420491,114.237174 Z M100.055325,118.41845 C99.6353799,118.698025 99.2022459,118.778978 98.8308598,118.685385 C98.4019223,118.571328 98.0074556,118.197259 97.6204827,117.611025 L95.8354911,114.905564 L95.0672404,115.416863 L94.6122249,114.727708 L95.3807754,114.216409 L94.7767858,113.300946 L95.4742964,112.436944 L96.2617309,113.630176 L97.5527399,112.771891 L98.0074556,113.461047 L96.7167464,114.319331 L98.4813552,116.993795 C98.8887109,117.611025 99.2933689,117.844857 99.7954446,117.511113 C100.041237,117.347702 100.171327,117.231538 100.277138,117.101833 L100.773218,117.763903 C100.639531,117.941158 100.403631,118.187027 100.055325,118.41845 L100.055325,118.41845 Z M94.3466493,121.782973 L92.3197622,118.214111 C91.9723558,117.6029 91.6636167,117.084077 91.3578751,116.620026 L92.1797805,116.149354 L92.8005559,117.143062 L92.8329285,117.124704 C92.6716648,116.293806 92.9986885,115.523998 93.628756,115.163471 C93.7246749,115.108399 93.8056066,115.076499 93.8967295,115.038279 L94.4024022,115.927861 C94.3001886,115.9721 94.197975,116.016639 94.0696834,116.089768 C93.4078427,116.468954 93.2243977,117.241469 93.4920715,118.011578 C93.5496229,118.162951 93.6242598,118.31914 93.7093879,118.469008 L95.2860554,121.245191 L94.3466493,121.782973 Z M91.5772897,123.239227 L91.1666367,122.601833 L91.1333648,122.617482 C91.0452393,123.179039 90.6363848,123.838702 89.870532,124.204345 C88.7827513,124.723469 87.8631284,124.219693 87.4938405,123.439654 C86.8763623,122.135676 87.6928723,120.871422 89.7740136,119.891557 L89.7215579,119.780209 C89.5102365,119.334214 89.0027653,118.578852 87.9092894,119.114828 C87.3985211,119.35829 86.9453041,119.752523 86.6893204,120.188887 L86.1557713,119.637262 C86.4681073,119.146728 87.0331299,118.644457 87.7105574,118.321547 C89.3642599,117.531878 90.2970716,118.466601 90.8090389,119.547582 L91.7643316,121.56479 C91.9858444,122.033055 92.2244428,122.47935 92.4543485,122.820618 L91.5772897,123.239227 Z M84.2895484,126.524601 C83.5383832,126.797254 82.7854195,126.70336 82.2497722,126.267899 L82.2266917,126.276325 L83.3261625,129.328169 L82.3088223,129.697424 L80.1185732,123.617209 C79.8589926,122.897659 79.6386788,122.321657 79.4114708,121.800427 L80.3247989,121.46879 L80.729457,122.411037 L80.7525375,122.40261 C80.9060078,121.559373 81.4344612,120.921378 82.3360992,120.594255 C83.6999467,120.098605 85.1306376,120.878343 85.7454181,122.584078 C86.4729033,124.603092 85.5955447,126.050318 84.2895484,126.524601 L84.2895484,126.524601 Z M75.5974939,123.757748 C74.8529231,123.921159 74.4482651,124.603995 74.4746428,125.418944 C74.4851339,125.581151 74.5097132,125.752386 74.546582,125.921214 L75.2264075,129.043178 L74.1698004,129.274903 L73.2957391,125.26125 C73.1458657,124.573901 73.0052845,123.985862 72.850915,123.451691 L73.7753338,123.248556 L74.0729822,124.383405 L74.1092516,124.37528 C74.2024728,123.533547 74.7432158,122.897057 75.4515173,122.741771 C75.5597258,122.717997 75.6463526,122.711677 75.7449693,122.702649 L75.9628851,123.702977 C75.8522786,123.714714 75.7413723,123.726451 75.5974939,123.757748 L75.5974939,123.757748 Z M70.881879,129.858127 L70.7071267,128.897222 L70.6828472,128.89993 C70.4703268,129.409724 69.9089012,130.109713 68.8588886,130.233701 C67.9308728,130.343244 66.7582638,129.947506 66.5160685,127.876128 L66.1093122,124.407781 L67.1836043,124.281085 L67.5669803,127.553218 C67.6991686,128.680845 68.143693,129.411229 69.1079781,129.297172 C69.8282694,129.212006 70.2697962,128.65045 70.4079795,128.137044 C70.4517425,127.982962 70.4652311,127.782535 70.4406519,127.573983 L70.0156111,123.946138 L71.0899032,123.819742 L71.5940771,128.121094 C71.6672153,128.74645 71.7427515,129.284232 71.8338745,129.745575 L70.881879,129.858127 Z M61.6538774,130.542467 L61.6415878,130.542166 C60.0448372,130.501238 58.8221704,129.284834 58.8701299,127.397331 C58.9213866,125.399382 60.2657505,124.261524 61.8996697,124.303656 C63.6076263,124.347593 64.7304774,125.623283 64.6840167,127.436453 C64.6273646,129.656496 63.0668833,130.578881 61.6538774,130.542467 L61.6538774,130.542467 Z M56.1918932,128.239665 C55.0888254,130.129275 54.3955113,131.062493 53.5601173,131.583723 C52.951032,131.943649 52.411488,132.039348 52.1366203,132.042959 L52.0197191,131.10944 C52.3005817,131.069716 52.6806605,130.958969 53.040956,130.745 C53.3703776,130.563232 53.791222,130.209325 54.1380289,129.704948 C54.2048724,129.603831 54.2555296,129.524985 54.2660208,129.463894 C54.2762121,129.403104 54.2660208,129.313724 54.2282527,129.169874 L52.9855029,123.378563 L54.14852,123.57598 L54.8346402,127.270936 C54.9146726,127.68473 54.9821156,128.171652 55.0195839,128.540907 L55.0438634,128.54512 C55.212321,128.210775 55.4092546,127.781633 55.626571,127.380478 L57.3713965,124.123091 L58.498444,124.31449 L56.1918932,128.239665 Z M48.8831697,124.991908 C48.8034371,125.199257 48.7341956,125.34431 48.6670523,125.450241 L44.782635,123.938614 C44.2814585,125.304887 44.9235159,126.202895 45.9315641,126.595323 C46.6533541,126.876402 47.1488354,126.923649 47.5780726,126.905292 L47.4815542,127.701281 C47.064007,127.724153 46.3697937,127.679012 45.4873395,127.335638 C43.7919722,126.675674 43.2002722,125.135758 43.8444279,123.467942 C44.4927799,121.788389 46.000206,120.853365 47.6158407,121.482031 C49.426011,122.186535 49.2785356,123.968407 48.8831697,124.991908 L48.8831697,124.991908 Z M42.6481388,122.721909 C41.5798416,124.582026 39.8805776,124.823381 38.7307493,124.158 C37.9855791,123.726751 37.5659337,123.098988 37.5647347,122.186836 L37.5431529,122.174497 L36.9991127,122.998775 L36.1897966,122.53051 C36.4241986,122.196165 36.7356354,121.678546 36.9997122,121.219009 L40.590078,114.965151 L41.5270862,115.507447 L39.6674577,118.746476 L39.6887398,118.758815 C40.3502807,118.372707 41.1551006,118.35435 41.9859984,118.834953 C43.263219,119.574365 43.5440817,121.161228 42.6481388,122.721909 L42.6481388,122.721909 Z M34.8909942,115.369916 C34.8049669,115.113214 34.620323,114.669927 34.2054736,114.30308 C33.7258789,113.878452 33.2238032,113.927806 32.9315501,114.261249 C32.606325,114.631407 32.7184302,115.026543 33.0961111,115.771974 C33.6092774,116.736189 33.6734232,117.484329 33.0883177,118.150914 C32.3893084,118.946903 31.2841423,118.955329 30.2419231,118.033547 C29.753336,117.600793 29.4152217,117.071739 29.2641494,116.609192 L29.9943323,116.169517 C30.113032,116.537568 30.3911969,117.079864 30.797054,117.438586 C31.3776633,117.952894 31.9064165,117.910763 32.239435,117.530975 C32.5808465,117.142159 32.5292901,116.734685 32.1342239,115.990156 C31.5829898,114.975984 31.5949796,114.197149 32.058388,113.669298 C32.6920525,112.94734 33.802614,112.87692 34.7522115,113.717449 C35.2042295,114.117098 35.4946841,114.588673 35.5962982,114.957928 L34.8909942,115.369916 Z M26.4348404,114.054503 C26.2439017,113.941349 25.9741297,113.734 25.7052569,113.412595 C25.3815305,113.024983 25.2523397,112.602161 25.3026971,112.22147 C25.3674424,111.78029 25.6929673,111.344527 26.2295139,110.892213 L28.7051218,108.805487 L28.1125226,108.09647 L28.7431896,107.565007 L29.3357888,108.273724 L30.1735808,107.567716 L31.1075915,108.165987 L30.0153146,109.086566 L31.0110731,110.27739 L30.3807058,110.808852 L29.3849473,109.618028 L26.9378153,111.681281 C26.3727928,112.15737 26.1872496,112.587715 26.5745223,113.050563 C26.7639623,113.277473 26.8934528,113.393937 27.034034,113.485122 L26.4348404,114.054503 Z M23.3441523,109.882555 C22.9919499,109.65715 22.4533051,109.214466 21.9347433,108.419981 C20.9383853,106.892103 21.3502373,105.293805 22.8414771,104.313639 C24.3423087,103.326853 26.1105145,103.44753 27.060112,104.902882 C28.123913,106.533983 26.9704877,107.896645 26.0553611,108.498226 C25.8704174,108.620107 25.7298362,108.69775 25.6138342,108.744697 L23.3312632,105.245052 C22.1313772,106.063612 22.1325762,107.168668 22.7251754,108.077209 C23.1493169,108.727543 23.5248995,109.05587 23.8842958,109.291507 L23.3441523,109.882555 Z M19.4948053,104.050918 L19.0014222,103.084595 L26.765461,99.087495 L27.2591438,100.053817 L19.4948053,104.050918 Z M18.2919218,51.8571875 L12.7079407,49.9663742 L12.0802712,51.8352188 L10.7712774,51.3922334 L12.5574679,46.0733994 L13.8664617,46.5163848 L13.231898,48.4059943 L18.815879,50.2965067 L18.2919218,51.8571875 Z M14.2792129,89.3881614 C12.4582518,89.3881614 10.9819993,87.9063271 10.9819993,86.0778086 C10.9819993,84.249892 12.4582518,82.7674559 14.2792129,82.7674559 C16.100174,82.7674559 17.5764265,84.249892 17.5764265,86.0778086 C17.5764265,87.9063271 16.100174,89.3881614 14.2792129,89.3881614 L14.2792129,89.3881614 Z M8.91644487,61.0316797 L10.2623075,61.1255733 L10.0653739,63.9685645 L11.5722005,64.0738939 L11.7583432,61.39311 L13.093415,61.4867027 L12.907572,64.1674866 L14.6299165,64.287863 L14.837641,61.2934985 L16.1838034,61.3876931 L15.8615757,66.0251964 L8.60500806,65.5175086 L8.91644487,61.0316797 Z M9.52373166,57.0691875 L12.4321738,56.1034673 C13.2678676,55.8284071 14.2387471,55.5912654 15.108612,55.4224374 L15.1128084,55.4010706 C14.1518205,55.3086817 13.1824398,55.148581 12.1027522,54.9328062 L10.0282053,54.5190121 L10.3228563,53.0314599 L17.4565278,54.4549116 L17.1199123,56.1552292 L14.064894,57.1362973 C13.2085177,57.4071444 12.2031673,57.7032705 11.3000305,57.8766126 L11.2916376,57.9190453 C12.2547238,58.0559735 13.2639709,58.2356354 14.4284867,58.467661 L16.577071,58.8968031 L16.2827198,60.3843553 L9.1490483,58.9606026 L9.52373166,57.0691875 Z M15.0954231,40.5095992 L16.3165911,41.0843968 L15.1125087,43.6637635 L16.4805526,44.3074766 L17.6156933,41.8749692 L18.8272694,42.4449518 L17.691829,44.8774592 L19.2550079,45.6129594 L20.5229364,42.8960626 L21.7441044,43.4705593 L19.7801641,47.6783186 L13.1956286,44.5801293 L15.0954231,40.5095992 Z M19.3017684,33.4492187 C19.7822624,32.7420069 20.2897335,32.3029338 20.5696969,32.1404256 L21.4539496,33.166033 C21.1554019,33.3550241 20.7870133,33.6664982 20.4521962,34.1588379 C19.722313,35.2328969 19.8011464,36.5200223 21.1383164,37.4360871 C22.3331067,38.2543462 23.5773552,38.0575306 24.3986611,36.8492519 C24.6843197,36.4285361 24.9085302,35.9262653 24.9810689,35.5693491 L26.1848516,36.1053253 C26.1362927,36.4264296 25.8896012,37.0969265 25.3968176,37.8218937 C23.9793155,39.907115 21.9479322,40.0894853 20.2363786,38.9170186 C18.1954034,37.5182441 18.0605174,35.2747277 19.3017684,33.4492187 L19.3017684,33.4492187 Z M24.4412252,27.2681882 L25.4594647,28.1562655 L23.5986372,30.307393 L24.7391734,31.3017025 L26.4938905,29.2736601 L27.5037371,30.1545148 L25.7493197,32.1825573 L27.0523186,33.3192121 L29.0123622,31.054028 L30.0306017,31.9418044 L26.9950669,35.4501764 L21.5049066,30.6622026 L24.4412252,27.2681882 Z M27.4255032,24.2882688 C28.2228294,23.5581856 28.8897658,23.167263 29.5564024,23.1287425 C30.1157297,23.085708 30.6330925,23.3011818 31.0839115,23.7974338 C31.7019892,24.4778618 31.6447376,25.3951304 31.3350993,25.9867807 L31.3569808,26.010856 C31.8698474,25.8197584 32.396802,25.9822666 32.9837061,26.3542299 C33.7105918,26.8170774 34.5103159,27.3753232 34.8031685,27.4887781 L33.55892,28.6278403 C33.3341099,28.5405674 32.8059563,28.2327046 32.0508944,27.7069604 C31.2811449,27.1652663 30.8899754,27.2010783 30.3807058,27.6530919 L30.021909,27.9817197 L31.9489805,30.102452 L30.7451978,31.2051004 L25.9159789,25.8904796 C26.2415038,25.4607356 26.7720554,24.8868408 27.4255032,24.2882688 L27.4255032,24.2882688 Z M35.318433,18.1310127 L36.1226534,19.2583383 L34.5085175,20.4193693 L37.9400176,25.228409 L36.6064445,26.1872075 L33.1752442,21.3784688 L31.5784936,22.5268602 L30.7739735,21.3995346 L35.318433,18.1310127 Z M38.0083598,16.5531782 L41.7171256,22.8359268 L40.3056184,23.6758536 L36.5971524,17.392804 L38.0083598,16.5531782 Z M43.7416147,13.6153906 L44.3288185,14.8345032 L41.8127448,16.0560234 L42.5360336,17.5580207 L44.8866471,16.4168519 L45.4693547,17.6260334 L43.1184414,18.7675033 L44.3914656,21.4106695 L42.9146136,22.1275113 L39.7489888,15.5537526 L43.7416147,13.6153906 Z M46.9839747,12.3571556 L49.579781,19.1785889 L48.0471762,19.766026 L45.4516696,12.9445928 L46.9839747,12.3571556 Z M52.3623295,10.5587312 C53.1833357,10.3282103 53.8535693,10.3203858 54.1716005,10.3772637 L54.1907843,11.7327027 C53.8409799,11.6845521 53.359287,11.6848531 52.7879698,11.8452547 C51.5410236,12.1952493 50.77607,13.2307878 51.211602,14.7956818 C51.6009729,16.1938545 52.6791618,16.8474987 54.0816765,16.4535667 C54.5702636,16.3166384 55.0639464,16.0770893 55.3481063,15.8510825 L55.9254184,17.0388972 C55.6823239,17.2531673 55.0639464,17.6067732 54.2222577,17.843012 C51.800904,18.5222362 50.1301159,17.3488666 49.5719876,15.3458023 C48.9071494,12.9566304 50.2425209,11.153391 52.3623295,10.5587312 L52.3623295,10.5587312 Z M57.6975209,9.54666612 L59.8236241,9.24512308 L63.0845684,16.1568387 L61.332549,16.4054161 L60.5157392,14.6286595 L58.4432906,14.922679 L58.2019945,16.8493043 L56.5138212,17.0888535 L57.6975209,9.54666612 Z M66.9171295,10.1675077 L63.7661923,10.2186677 L63.7446106,8.85389957 L69.020452,8.76843228 L69.0357391,9.72151294 L65.7271352,14.7162334 L65.7280344,14.7595689 L69.1697259,14.7038948 L69.1916074,16.0686629 L63.5485762,16.1598481 L63.5341884,15.2717707 L66.9174293,10.2003103 L66.9171295,10.1675077 Z M70.740998,8.91739816 L72.3761162,9.04258968 L71.8245823,16.3217544 L70.1894641,16.1968639 L70.740998,8.91739816 Z M73.4920732,12.7748619 C73.8820436,10.6222298 75.5537309,9.26468426 77.6555547,9.64838423 C79.8529977,10.0495388 80.7534367,11.92049 80.3943402,13.9027894 C79.9660022,16.2687888 78.2973123,17.428616 76.2059797,17.0470226 L76.1954885,17.0449161 C74.0828739,16.6594104 73.1215862,14.8212618 73.4920732,12.7748619 L73.4920732,12.7748619 Z M82.9568746,10.9225691 L84.7769365,11.5404013 L85.3536491,14.5615496 C85.5170111,15.429163 85.6255194,16.426482 85.6794738,17.3139575 L85.6998566,17.32118 C85.9156742,16.3765257 86.1998341,15.4318714 86.5523362,14.3851981 L87.2300634,12.3737074 L88.6613539,12.8597273 L86.3305236,19.7768599 L84.6951057,19.2216235 L84.12199,16.0533149 C83.9655222,15.1652376 83.8030595,14.1263887 83.7491051,13.2046059 L83.7080398,13.1904617 C83.4481594,14.1315047 83.1400198,15.1134757 82.7596413,16.242306 L82.0576346,18.3260226 L80.6266439,17.8397017 L82.9568746,10.9225691 Z M94.7438137,15.7382295 L94.1527132,16.9555365 L91.6012694,15.7069317 L90.939129,17.0704961 L93.3448959,18.2480788 L92.7582916,19.4557557 L90.3525247,18.2781729 L89.595964,19.8364463 L92.2831931,21.1518601 L91.6920926,22.369167 L87.5301099,20.3323973 L90.7179159,13.7676668 L94.7438137,15.7382295 Z M100.825974,19.5625898 L99.9483155,21.945141 C99.6365789,22.7652056 99.26849,23.6246936 98.8899099,24.4083443 L98.9243808,24.4342253 C99.5826245,23.8726691 100.354772,23.2476143 101.036995,22.7444407 L103.094157,21.2562866 L104.825794,22.5494308 L100.797198,28.6410818 L99.5154812,27.6840889 L101.081957,25.3704532 C101.577439,24.6469907 102.176033,23.7841924 102.813594,22.9235007 L102.796508,22.9108611 C102.051938,23.5160538 101.191365,24.169698 100.457585,24.6882196 L98.0539164,26.4442113 L97.023687,25.6747047 L98.0808936,22.9403534 C98.3995243,22.1115614 98.8206684,21.1434337 99.2466085,20.2598705 L99.2292231,20.24693 C98.6171404,21.0185431 97.9130354,21.8966894 97.3375218,22.6011927 L95.5762102,24.742389 L94.355342,23.8308383 L99.0679594,18.2498845 L100.825974,19.5625898 Z M109.451784,27.0728774 L105.855124,33.8139593 L104.614472,32.547298 L105.55208,30.8316325 L104.08452,29.3332464 L102.398145,30.2839195 L101.202456,29.0639041 L107.946157,25.5356699 L109.451784,27.0728774 Z M114.277406,32.6893422 C114.795668,33.3688674 115.052251,33.9903109 115.117896,34.3081047 L113.871549,34.8296358 C113.786121,34.485961 113.606873,34.0372577 113.246278,33.5641782 C112.459143,32.53195 111.217292,32.2042251 109.931978,33.1922149 C108.784248,34.0742735 108.58102,35.3222764 109.466472,36.4833074 C109.774611,36.8874714 110.179569,37.2582309 110.494003,37.4393975 L109.61065,38.41866 C109.321994,38.2721017 108.765364,37.8270097 108.233913,37.1303309 C106.705805,35.1263637 107.169513,33.1329295 108.814223,31.8686757 C110.776065,30.3606595 112.939936,30.9348553 114.277406,32.6893422 L114.277406,32.6893422 Z M34.8580221,110.538005 C33.9261096,111.066759 32.6117204,111.628917 31.9771567,111.792328 L31.4397109,111.354158 C32.1363222,111.025229 33.2684654,110.366168 33.9917542,109.836812 L34.8580221,110.538005 Z M20.9821484,67.4904789 C20.9821484,41.9796968 41.6544785,21.2252897 67.0640054,21.2252897 C92.4732325,21.2252897 113.145563,41.9796968 113.145563,67.4904789 C113.145563,93.00096 92.4732325,113.755668 67.0640054,113.755668 C41.6544785,113.755668 20.9821484,93.00096 20.9821484,67.4904789 L20.9821484,67.4904789 Z M118.01225,38.4653059 C118.448381,39.2008061 118.630927,39.8484315 118.659103,40.1716423 L117.360301,40.5439065 C117.315339,40.1924072 117.189445,39.7256475 116.886102,39.2134456 C116.224261,38.0960511 115.028571,37.6247773 113.637447,38.4553749 C112.394098,39.1974958 112.046991,40.413298 112.791562,41.6703293 C113.051142,42.1081986 113.410239,42.5237984 113.702192,42.740777 L112.710331,43.610196 C112.440858,43.430835 111.939382,42.9234482 111.49246,42.1689888 C110.207146,39.999203 110.899561,38.0731796 112.680356,37.0099545 C114.804361,35.7414875 116.887301,36.5654644 118.01225,38.4653059 L118.01225,38.4653059 Z M124.144168,54.754649 L121.830423,56.7715566 C121.164686,57.3487618 120.359566,57.9428196 119.62159,58.4351594 L119.625786,58.4562253 C120.548107,58.1700302 121.504599,57.9428196 122.583387,57.7243364 L124.656735,57.3039216 L124.955882,58.7908718 L117.825508,60.2359913 L117.484096,58.5368775 L119.927032,56.4498505 C120.613751,55.8684322 121.427564,55.2057598 122.194915,54.6965674 L122.186223,54.6541346 C121.245018,54.9003045 120.244164,55.1254085 119.080547,55.3610454 L116.932862,55.7965073 L116.634015,54.309557 L123.764089,52.8641366 L124.144168,54.754649 Z M114.48543,19.8800827 C101.818435,7.1629112 84.9771673,0.159408532 67.0640054,0.159408532 C49.1505438,0.159408532 32.309276,7.1629112 19.6425804,19.8800827 C6.9758848,32.5972542 -0.000119898676,49.5056333 -0.000119898676,67.4904789 C-0.000119898676,85.4753244 6.9758848,102.383403 19.6425804,115.100875 C32.309276,127.818047 49.1505438,134.821549 67.0640054,134.821549 C84.9771673,134.821549 101.818435,127.818047 114.48543,115.100875 C127.152126,102.383403 134.127831,85.4753244 134.127831,67.4904789 C134.127831,49.5056333 127.152126,32.5972542 114.48543,19.8800827 L114.48543,19.8800827 Z" id="Fill-39" fill="#FFFFFF" mask="url(#mask-2)"></path>
                            </g>
                            <path d="M105.963392,106.502264 C105.182252,107.288322 105.565628,108.334995 106.035631,108.92785 L108.257953,106.691857 C107.779557,106.195003 106.814373,105.646387 105.963392,106.502264" id="Fill-42" fill="#FFFFFF"></path>
                        </g>
                    </g>
                </g>
            </g>
        </g>
    </g>
</svg>