<?xml version="1.0" encoding="UTF-8" standalone="no"?>
<svg width="22px" height="23px" viewBox="0 0 22 23" version="1.1" xmlns="http://www.w3.org/2000/svg" xmlns:xlink="http://www.w3.org/1999/xlink">
    <defs></defs>
    <g id="Menclinic" stroke="none" stroke-width="1" fill="none" fill-rule="evenodd">
        <g id="Homepage" transform="translate(-1260.000000, -8817.000000)" fill-rule="nonzero" fill="#FFFFFF">
            <g id="footer" transform="translate(0.000000, 8276.000000)">
                <g id="social" transform="translate(1260.000000, 467.000000)">
                    <g id="002-facebook" transform="translate(0.000000, 74.000000)">
                        <g id="Layer_1">
                            <g id="Group">
                                <path d="M8.75263917,18.1641753 L11.597976,18.1641753 L11.597976,11.0080805 L13.5073939,11.0080805 C13.5073939,11.0080805 13.6863119,9.85338392 13.7734603,8.59065587 L11.6090494,8.59065587 L11.6090494,6.94389174 C11.6090494,6.69794881 11.9189734,6.36736082 12.2260637,6.36736082 L13.776512,6.36736082 L13.776512,3.85988724 L11.6679476,3.85988724 C8.68258039,3.85988724 8.75259557,6.27036412 8.75259557,6.63033266 L8.75259557,8.59914762 L7.36750689,8.59914762 L7.36750689,11.0072177 L8.75259557,11.0072177 L8.75259557,18.1641753 L8.75263917,18.1641753 Z" id="Shape"></path>
                                <path d="M0,0 L0,22.0240625 L21.1440625,22.0240625 L21.1440625,0 L0,0 Z M19.8361823,20.6617494 L1.30788015,20.6617494 L1.30788015,1.36231314 L19.8361823,1.36231314 L19.8361823,20.6617494 Z" id="Shape"></path>
                            </g>
                        </g>
                    </g>
                </g>
            </g>
        </g>
    </g>
</svg>