<?xml version="1.0" encoding="UTF-8" standalone="no"?>
<svg width="13px" height="13px" viewBox="0 0 24 24" version="1.1" xmlns="http://www.w3.org/2000/svg" xmlns:xlink="http://www.w3.org/1999/xlink">
    <defs></defs>
    <g id="Menclinic" stroke="none" stroke-width="1" fill="none" fill-rule="evenodd">
        <g id="Btn-Action" transform="translate(-1261.000000, -949.000000)" fill-rule="nonzero" fill="#EDCEA7">
            <g id="phone-btn-copy" transform="translate(1153.000000, 930.000000)">
                <g id="10-reasons-btn-copy-6">
                    <g id="Group-2" transform="translate(108.000000, 19.000000)">
                        <path d="M23.9515026,18.9317647 C24.0022798,19.3214533 23.8837306,19.6602768 23.5963523,19.9482353 L20.2224249,23.3024637 C20.0702176,23.4718754 19.871544,23.616 19.6263212,23.7344637 C19.3810984,23.8530934 19.1401451,23.9293287 18.9034611,23.9631696 C18.8865492,23.9631696 18.8356891,23.9675294 18.7510881,23.976 C18.6666528,23.9844291 18.5567254,23.9887474 18.4214301,23.9887474 C18.1000207,23.9887474 17.5799378,23.9336886 16.8611813,23.8235294 C16.1424249,23.7133702 15.2630466,23.4422699 14.2230466,23.0103529 C13.1827979,22.5783529 12.0032332,21.9302699 10.6841451,21.0663529 C9.36505699,20.2024775 7.96132642,19.0165121 6.47307772,17.5087059 C5.28924352,16.3397647 4.30835233,15.2216471 3.53040415,14.1543945 C2.75245596,13.0870588 2.12671503,12.1002353 1.65318135,11.1938824 C1.17960622,10.2875294 0.824455959,9.46588235 0.587689119,8.72894118 C0.35092228,7.992 0.190259067,7.35670588 0.105699482,6.82305882 C0.0211398964,6.28941176 -0.0126839378,5.87011765 0.00422797927,5.56517647 C0.0211398964,5.26023529 0.0295958549,5.09082353 0.0295958549,5.05694118 C0.0634196891,4.81976471 0.139523316,4.57835294 0.257906736,4.33270588 C0.376290155,4.08705882 0.520041451,3.888 0.689160622,3.73552941 L4.06308808,0.355764706 C4.29985492,0.118588235 4.5704456,0 4.8748601,0 C5.09471503,0 5.28920207,0.0635294118 5.45832124,0.190588235 C5.62744041,0.317647059 5.77119171,0.474352941 5.88957513,0.660705882 L8.60393782,5.81929412 C8.75614508,6.09035294 8.79842487,6.38682353 8.7307772,6.70870588 C8.66312953,7.03058824 8.51937824,7.30164706 8.29952332,7.52188235 L7.05649741,8.76705882 C7.02267358,8.80094118 6.99307772,8.856 6.96770984,8.93223529 C6.94234197,9.00847059 6.92965803,9.072 6.92965803,9.12282353 C6.9973057,9.47858824 7.14951295,9.88517647 7.38627979,10.3425882 C7.5892228,10.7491765 7.90209326,11.2447059 8.32489119,11.8291765 C8.74768912,12.4136471 9.34806218,13.0870173 10.1260104,13.8493702 C10.8870466,14.6287474 11.5635233,15.2343114 12.1554404,15.6663945 C12.7472332,16.0982284 13.2420725,16.416 13.6395026,16.6192941 C14.0369326,16.8225882 14.3413472,16.9454118 14.5527047,16.9876401 L14.8697202,17.0512111 C14.903544,17.0512111 14.9586321,17.0384637 15.0346528,17.0130934 C15.1107565,16.9876401 15.1657202,16.9580346 15.1995855,16.9241107 L16.645513,15.4502284 C16.9500933,15.1792111 17.3050777,15.0436817 17.7110052,15.0436817 C17.9985907,15.0436817 18.2267772,15.0944637 18.3958964,15.1961522 L18.4212228,15.1961522 L23.3171813,18.0930934 C23.672456,18.3134948 23.8838135,18.5929412 23.9515026,18.9317647 Z" id="phone-icon"></path>
                    </g>
                </g>
            </g>
        </g>
    </g>
</svg>
