<?xml version="1.0" encoding="UTF-8" standalone="no"?>
<svg width="14px" height="20px" viewBox="0 0 14 20" version="1.1" xmlns="http://www.w3.org/2000/svg" xmlns:xlink="http://www.w3.org/1999/xlink">
    <defs></defs>
    <g id="Menclinic" stroke="none" stroke-width="1" fill="none" fill-rule="evenodd">
        <g id="Btn-Action" transform="translate(-399.000000, -980.000000)" fill-rule="nonzero" fill="#2E4152">
            <g id="Group-6-Copy" transform="translate(399.000000, 980.000000)">
                <path d="M11.4155838,1.95875169 C10.1525884,0.695693364 8.47324397,0 6.68719698,0 C4.90080129,0 3.22180553,0.695693364 1.95881017,1.95875169 C-0.378533245,4.29586293 -0.669001255,8.69320294 1.3297534,11.3574121 L6.68719698,19.0947777 L12.0366204,11.3682224 C14.0433952,8.69320294 13.7529272,4.29586293 11.4155838,1.95875169 Z M6.74891707,9.06668043 C5.40327956,9.06668043 4.30800943,7.97135569 4.30800943,6.62565108 C4.30800943,5.27994648 5.40327956,4.18462174 6.74891707,4.18462174 C8.09455459,4.18462174 9.18982472,5.27994648 9.18982472,6.62565108 C9.18982472,7.97135569 8.09455459,9.06668043 6.74891707,9.06668043 Z" id="pin-copy"></path>
            </g>
        </g>
    </g>
</svg>