<?xml version="1.0" encoding="UTF-8" standalone="no"?>
<svg width="22px" height="23px" viewBox="0 0 22 23" version="1.1" xmlns="http://www.w3.org/2000/svg" xmlns:xlink="http://www.w3.org/1999/xlink">
    <defs></defs>
    <g id="Menclinic" stroke="none" stroke-width="1" fill="none" fill-rule="evenodd">
        <g id="Homepage" transform="translate(-1260.000000, -8882.000000)" fill-rule="nonzero" fill="#FFFFFF">
            <g id="footer" transform="translate(0.000000, 8276.000000)">
                <g id="social" transform="translate(1260.000000, 467.000000)">
                    <g id="001-youtube" transform="translate(0.000000, 139.000000)">
                        <g id="Layer_1">
                            <g id="Group">
                                <path d="M5.4292721,15.7991996 C7.13195768,15.9968713 8.85535136,15.9981882 10.5713337,15.9968713 C12.2880136,15.9981882 14.0114509,15.9968713 15.7135697,15.7991996 C16.4326422,15.715599 17.0299511,15.1539173 17.1983189,14.3932925 C17.4377045,13.3104352 17.4384021,12.1273116 17.4384021,11.0119404 C17.4384021,9.89656925 17.4405383,8.71403603 17.2009782,7.63113331 C17.0328284,6.8697819 16.435476,6.30887217 15.7162291,6.22527155 C14.0135435,6.02705499 12.2899754,6.02628301 10.5741675,6.02705499 C8.8581851,6.02632843 7.13405028,6.02705499 5.43119032,6.22527155 C4.71285895,6.30887217 4.1153321,6.8697819 3.94787984,7.63113331 C3.70849418,8.71408144 3.70566044,9.89661466 3.70566044,11.0119858 C3.70566044,12.127357 3.70566044,13.3104352 3.94522049,14.3933379 C4.11267274,15.1539627 4.7100252,15.715599 5.4292721,15.7991996 Z M8.80007162,8.50219633 C10.2550447,9.29306452 11.7009498,10.0782564 13.1656884,10.8743014 C11.7052222,11.6629899 10.2591427,12.4444581 8.80007162,13.2325563 L8.80007162,8.50219633 Z" id="Shape"></path>
                                <path d="M0,0 L0,22.0240625 L21.1440625,22.0240625 L21.1440625,0 L0,0 Z M19.8361823,20.6617494 L1.30788015,20.6617494 L1.30788015,1.36231314 L19.8361823,1.36231314 L19.8361823,20.6617494 Z" id="Shape"></path>
                            </g>
                        </g>
                    </g>
                </g>
            </g>
        </g>
    </g>
</svg>